<svg xmlns="http://www.w3.org/2000/svg" viewBox="0 0 64 64" role="img" aria-label="SportIQ favicon">
  <g transform="translate(33 32) scale(1.08) translate(-32 -32)">
    <path d="M45.4 17.8c-2.8-2.5-7-3.8-12.6-3.8-6.2 0-10.9 1.3-14.2 3.8-3.3 2.6-4.9 6-4.9 10.3 0 3.5 1.2 6.2 3.5 8.3 2.3 2 5.8 3.3 10.3 3.9l6.4.8c2.1.3 3.6.7 4.5 1.3.9.5 1.3 1.4 1.3 2.6 0 1.4-.7 2.5-2 3.2-1.4.7-3.4 1-6.2 1-3.1 0-5.5-.5-7.1-1.4-1.6-.9-2.5-2.2-2.8-3.8H12.9c.5 4.1 2.4 7.3 5.8 9.5 3.4 2.2 7.9 3.3 13.5 3.3 6.3 0 11.2-1.2 14.7-3.6 3.5-2.4 5.3-5.8 5.3-10 0-3.7-1.2-6.6-3.5-8.6-2.3-2-5.8-3.2-10.5-3.8l-6.5-.9c-2.1-.3-3.6-.7-4.5-1.2-.9-.6-1.3-1.4-1.3-2.5 0-1.3.6-2.3 1.9-2.9 1.3-.7 3.2-1 5.8-1 2.9 0 5.1.4 6.6 1.3 1.5.9 2.3 2 2.5 3.4h8.8c-.2-3.8-1.7-6.8-4.4-9.3z" fill="#E65100"/>
  </g>
</svg>
